<svg style="vertical-align: middle;" version="1.1" xmlns="http://www.w3.org/2000/svg" xmlns:xlink="http://www.w3.org/1999/xlink" x="0px" y="0px" width="25px" n="true" height="20px" viewBox="0 0 40 32" enable-background="new 0 0 40 32" xml:space="preserve"> <g> <g> <g> <path fill="#713EA7" d="M16.313,23.501c-0.845,0-1.683-0.32-2.323-0.96c-1.28-1.28-1.28-3.373,0-4.652l1.242,1.24c-0.288,0.289-0.448,0.68-0.448,1.089s0.16,0.794,0.448,1.088c0.583,0.583,1.594,0.583,2.176,0l1.241,1.241C18.003,23.181,17.158,23.501,16.313,23.501z"></path> </g> <g> <g> <path fill="#713EA7" d="M14.611,18.509"></path> </g> <g> <path fill="#713EA7" d="M15.398,27.539c-1.651,0-3.296-0.627-4.55-1.881c-1.216-1.217-1.888-2.83-1.888-4.551c0-1.639,0.608-3.182,1.715-4.378l-0.013-0.013l10.822-10.81l0,0c0.916-0.89,2.119-1.382,3.398-1.382c1.307,0,2.528,0.505,3.45,1.427c0.921,0.921,1.427,2.144,1.427,3.449c0,1.223-0.447,2.375-1.261,3.271l0.007,0.006l-0.141,0.141c-0.014,0.013-0.02,0.019-0.032,0.032l0,0L18.33,22.854l-1.242-1.241l10.067-10.068c0.55-0.582,0.851-1.344,0.851-2.15c0-0.832-0.326-1.619-0.914-2.208c-1.178-1.177-3.238-1.177-4.423,0L12.083,17.785l0.007,0.007c-0.883,0.884-1.37,2.062-1.37,3.315s0.486,2.426,1.37,3.314c1.824,1.824,4.793,1.824,6.617,0.007l11.092-11.091l1.241,1.242L19.718,25.895l-0.006-0.006C18.49,26.988,16.947,27.539,15.398,27.539z"></path> </g> </g> </g> <g> <path fill="#713EA7" d="M14.611,18.509"></path> </g> <g> <rect x="12.665" y="12.942" transform="matrix(-0.7071 0.7071 -0.7071 -0.7071 42.7109 9.9459)" fill="#713EA7" width="13.26" height="1.754"></rect> </g> </g></svg>